<!DOCTYPE svg PUBLIC "-//W3C//DTD SVG 1.1//EN" "http://www.w3.org/Graphics/SVG/1.1/DTD/svg11.dtd">
<!-- Uploaded to: SVG Repo, www.svgrepo.com, Transformed by: SVG Repo Mixer Tools -->
<svg fill="#016a13" height="222px" width="222px" version="1.1" id="Layer_1" xmlns="http://www.w3.org/2000/svg" xmlns:xlink="http://www.w3.org/1999/xlink" viewBox="0 0 512 512" xml:space="preserve" stroke="#016a13">
<g id="SVGRepo_bgCarrier" stroke-width="0"/>
<g id="SVGRepo_tracerCarrier" stroke-linecap="round" stroke-linejoin="round"/>
<g id="SVGRepo_iconCarrier"> <g> <g> <path d="M466.824,52.706v105.412c0,24.949-20.227,45.176-45.176,45.176c-24.949,0-45.177-20.227-45.177-45.176V97.882H150.588 c0-24.949-20.227-45.175-45.177-45.175H45.176V7.529H0v496.941h45.176v-45.176h421.647v45.176H512V52.706H466.824z M45.176,143.059H256v45.176H45.176V143.059z M256,414.118H45.176v-45.177H256V414.118z M466.824,384 c0,24.949-20.227,45.176-45.176,45.176c-24.949,0-45.177-20.227-45.177-45.176v-60.235H150.588 c0-24.949-20.227-45.175-45.177-45.175H45.176v-0.002v-45.177h421.647V384z"/> </g> </g> </g>
</svg>